<svg width="56" height="28" viewBox="0 0 56 28" fill="none" xmlns="http://www.w3.org/2000/svg">
<rect x="1" y="1" width="54" height="26" rx="13" fill="white" stroke="black" stroke-width="2"/>
<rect x="14" width="28" height="28" rx="14" fill="black"/>
<path d="M12.6095 18H11.0275V8.62H17.5375V10.02H12.6095V12.904H16.6835V14.304H12.6095V18Z" fill="black" fill-opacity="0.5"/>
<path d="M42.2226 18.112C44.2946 18.112 45.7226 17.034 46.3806 15.214L45.0086 14.206C44.7146 15.606 43.8466 16.614 42.2366 16.614C40.3046 16.614 39.3946 15.228 39.3946 13.296C39.3946 11.35 40.3046 9.978 42.2366 9.978C43.8466 9.978 44.7146 10.972 45.0086 12.386L46.3806 11.378C45.7226 9.544 44.2946 8.48 42.2226 8.48C39.3386 8.48 37.7146 10.594 37.7146 13.296C37.7146 15.998 39.3386 18.112 42.2226 18.112Z" fill="white"/>
</svg>
